<svg width="25" height="24" viewBox="0 0 25 24" fill="none" xmlns="http://www.w3.org/2000/svg">
<path d="M12.6445 0C10.2712 0 7.95108 0.703788 5.97769 2.02236C4.0043 3.34094 2.46623 5.21508 1.55798 7.4078C0.649731 9.60051 0.412091 12.0133 0.875113 14.3411C1.33814 16.6689 2.48102 18.807 4.15925 20.4853C5.83748 22.1635 7.97568 23.3064 10.3035 23.7694C12.6312 24.2324 15.044 23.9948 17.2367 23.0865C19.4294 22.1783 21.3036 20.6402 22.6222 18.6668C23.9407 16.6934 24.6445 14.3734 24.6445 12C24.6409 8.81851 23.3755 5.76838 21.1258 3.51873C18.8762 1.26908 15.826 0.00362976 12.6445 0ZM7.50168 20.8946V19.7143C7.50236 19.0325 7.7735 18.3788 8.25558 17.8968C8.73767 17.4147 9.39133 17.1435 10.0731 17.1429H15.216C15.8977 17.1435 16.5514 17.4147 17.0335 17.8968C17.5156 18.3788 17.7867 19.0325 17.7874 19.7143V20.8946C16.2267 21.8059 14.4518 22.2861 12.6445 22.2861C10.8372 22.2861 9.06239 21.8059 7.50168 20.8946ZM19.4948 19.6509C19.4777 18.5266 19.0197 17.454 18.2193 16.6642C17.419 15.8744 16.3404 15.4307 15.216 15.4286H10.0731C8.94869 15.4307 7.87011 15.8744 7.06975 16.6642C6.2694 17.454 5.81133 18.5266 5.79425 19.6509C4.23988 18.2629 3.14373 16.4356 2.65097 14.4109C2.1582 12.3861 2.29205 10.2594 3.0348 8.31245C3.77755 6.36546 5.09415 4.69 6.81028 3.50791C8.52641 2.32583 10.5611 1.69288 12.645 1.69288C14.7288 1.69288 16.7635 2.32583 18.4796 3.50791C20.1958 4.69 21.5124 6.36546 22.2551 8.31245C22.9979 10.2594 23.1317 12.3861 22.639 14.4109C22.1462 16.4356 21.05 18.2629 19.4957 19.6509H19.4948Z" fill="#8A53FF"/>
</svg>
