<svg width="79" height="51" viewBox="0 0 79 51" fill="none" xmlns="http://www.w3.org/2000/svg">
<path d="M1.34819 8.8518C1.4424 8.8361 1.53661 8.8204 1.64652 8.789C2.08616 8.67909 2.63571 8.56918 3.29517 8.45927C3.95463 8.34936 4.61409 8.30225 5.30496 8.31795C5.44627 8.31795 5.57188 8.25515 5.66609 8.11383C5.7446 7.97252 5.776 7.81551 5.7446 7.64279C7.80149 7.20315 9.87408 6.84202 11.9938 6.54369C11.774 6.87342 11.5541 7.17175 11.3814 7.42297C11.1302 7.7684 10.879 8.11383 10.6434 8.45927C10.4079 8.8047 10.1567 9.21294 9.85838 9.69968C9.54435 10.2021 9.16751 10.893 8.71217 11.7723C8.27253 12.6673 7.80149 13.6721 7.33044 14.787C6.8437 15.9175 6.52967 17.0637 6.35695 18.2256C6.19994 19.4032 6.29415 20.2197 6.67098 20.6907C7.03211 21.0518 7.50316 21.1774 8.06841 21.0675C8.36674 20.9733 8.53945 20.8163 8.57086 20.5651C8.58656 20.3296 8.46095 20.1568 8.16262 20.0626C8.06841 20.0469 7.9899 20.0312 7.9271 20.0312C7.83289 20.0469 7.77008 20.0312 7.70728 20.0155C7.64447 19.9841 7.59737 19.9213 7.55026 19.8271C7.48746 19.6544 7.45605 19.4346 7.44035 19.1991C7.44035 18.9635 7.45605 18.7437 7.47176 18.5553C7.73868 16.8281 8.36674 14.9911 9.35593 13.0441C10.3294 11.0971 11.3657 9.38565 12.4334 7.87831C12.4648 7.84691 12.4962 7.79981 12.5276 7.7527L12.9359 7.18745C13.1086 6.96763 13.2656 6.76351 13.4383 6.59079C13.5953 6.40238 13.7366 6.30817 13.8465 6.29247L15.6051 6.07265C16.767 5.93133 17.8504 5.80572 18.871 5.72721C19.8916 5.64871 21.132 5.6173 22.5923 5.64871C22.7022 5.64871 22.7964 5.64871 22.9063 5.66441C23.0005 5.68011 23.1104 5.69581 23.2046 5.69581C23.4401 5.68011 23.6128 5.6173 23.7385 5.47599C23.8484 5.33468 23.8955 5.19336 23.8641 5.03635C23.8327 4.86363 23.7071 4.75372 23.4872 4.67522C23.0162 4.5496 22.2782 4.5025 21.2733 4.5496C20.2684 4.58101 19.2321 4.64381 18.133 4.75372C17.0496 4.84793 16.1547 4.94214 15.4481 5.02065C15.2283 5.05205 15.0556 5.06775 14.9142 5.08345C14.9299 4.70662 14.82 4.4868 14.5688 4.42399C14.3333 4.36119 14.0978 4.39259 13.8622 4.5339C13.6267 4.69092 13.4697 4.84793 13.3441 5.00495C13.2656 5.09916 13.1871 5.17766 13.1086 5.24047C13.0144 5.31898 12.9202 5.35038 12.7945 5.36608C12.0409 5.47599 10.8476 5.64871 9.21462 5.93133C7.58167 6.19826 5.96442 6.51229 4.37857 6.87342C2.77702 7.21885 1.66222 7.57998 1.01846 7.94112C0.751534 8.14524 0.657325 8.34936 0.735832 8.58488C0.81434 8.8047 1.01846 8.89891 1.34819 8.8518ZM15.3206 15.572C15.5876 15.5249 15.9173 15.3522 16.3098 15.101C16.7181 14.8341 17.0792 14.5671 17.4246 14.3002C17.7701 14.0176 17.9742 13.8449 18.0527 13.7507C17.88 14.1275 17.6288 14.7398 17.299 15.5406C16.9536 16.3571 16.6867 17.048 16.4983 17.6446C16.4197 17.8958 16.4825 18.1 16.6553 18.2413C16.828 18.3983 17.0164 18.4454 17.2362 18.4297C17.456 18.3983 17.6131 18.2727 17.6759 18.0372C18.0213 16.5455 18.7122 14.8027 19.7328 12.7772C20.7533 10.7517 21.9624 8.66339 23.3598 6.49658C23.5325 6.19826 23.5482 5.94703 23.4069 5.74292C23.2656 5.5388 23.0772 5.42889 22.8259 5.41318C22.5747 5.39748 22.3706 5.50739 22.1979 5.75862C21.4442 7.10894 20.8633 8.14524 20.4864 8.8675C20.2038 9.41705 19.9369 9.8881 19.7013 10.2963C19.4658 10.7046 19.1832 11.1285 18.8692 11.5682C18.3981 12.2276 17.7073 12.9499 16.7652 13.7036C16.2156 14.1589 15.8074 14.4101 15.5719 14.4886C15.3206 14.5671 15.1636 14.52 15.1322 14.3473C15.1008 14.1746 15.1165 13.9548 15.2107 13.6721C15.2892 13.3738 15.3991 13.1069 15.5091 12.84C15.6347 12.5573 15.7289 12.3689 15.7917 12.2433C15.8388 12.1491 15.8074 12.0392 15.7289 11.9293C15.6504 11.8194 15.5405 11.7409 15.4149 11.6781C15.2892 11.6153 15.1636 11.6153 15.0694 11.6624C14.9281 11.7409 14.7554 11.8665 14.5827 12.0235C14.0802 11.5368 13.5307 11.5525 12.934 12.0863C11.2854 13.468 10.359 14.5828 10.1549 15.4464C9.95074 16.31 10.1863 16.6554 10.8457 16.467C11.097 16.3571 11.4267 16.1373 11.8349 15.7918C12.2589 15.4464 12.6828 15.0696 13.1067 14.6927C13.515 14.3002 13.8604 14.0019 14.1273 13.7821C13.986 14.4886 14.0488 14.9754 14.3 15.258C14.567 15.5406 14.9124 15.6505 15.3206 15.572ZM11.8506 14.4729L12.039 14.2531C12.1646 14.1118 12.3217 13.9548 12.4944 13.7821C12.6828 13.5936 12.8398 13.4523 12.9968 13.311C13.1538 13.1854 13.2638 13.1226 13.3266 13.1226C13.2638 13.2011 13.1538 13.311 13.0125 13.4523C12.8555 13.6093 12.6828 13.7664 12.5101 13.9234C12.3374 14.0961 12.1804 14.2217 12.0547 14.3316C11.9291 14.4415 11.8506 14.4886 11.8506 14.4729ZM26.8648 7.62709C27.2259 6.98333 27.5713 6.43378 27.9011 5.96274C28.0895 5.66441 28.2308 5.44459 28.3093 5.30327C28.4192 5.09916 28.4035 4.91074 28.3093 4.73802C28.1994 4.56531 28.0424 4.5025 27.8069 4.5182C27.587 4.5339 27.3358 4.72232 27.0532 5.06775C24.3996 8.69479 22.2485 12.5573 20.6313 16.6554L20.5842 16.7653C20.3173 17.3934 20.0503 18.1 19.8148 18.9007C19.7677 19.0891 19.8305 19.2305 20.0032 19.3404C20.1602 19.4503 20.3487 19.4974 20.5528 19.4817C20.7412 19.4817 20.8825 19.4032 20.9453 19.2462C21.1651 18.5553 21.4792 17.7388 21.856 16.781C22.2485 15.8232 22.594 15.0068 22.8923 14.3316C23.1278 14.7084 23.6146 14.8969 24.3525 14.8812C25.0905 14.8655 25.9855 14.7241 27.0218 14.4729C28.0424 14.206 28.8903 13.9391 29.5183 13.6721C29.7224 13.5779 29.8166 13.468 29.848 13.311C29.8637 13.154 29.8009 13.0284 29.691 12.9185C29.5654 12.8243 29.4084 12.7929 29.2043 12.84C28.6233 13.0598 28.0267 13.2482 27.4143 13.4052C26.802 13.5622 26.2524 13.6879 25.75 13.7664C25.2475 13.8449 24.8079 13.8763 24.431 13.8606C24.0542 13.8449 23.9757 13.7193 24.1955 13.4994C24.698 13.0755 25.326 12.7458 26.064 12.4945C26.2838 12.4003 26.378 12.2433 26.378 12.0392C26.3623 11.8351 26.2838 11.6624 26.1111 11.521C25.9541 11.3797 25.75 11.3326 25.5144 11.4111C25.2318 11.521 24.9335 11.6938 24.6038 11.9293C24.274 12.1491 24.0385 12.3218 23.8815 12.4474C23.8972 12.2904 24.0699 11.9136 24.3996 11.3326C24.7137 10.736 25.0591 10.1393 25.4202 9.52697C25.7814 8.93031 26.0326 8.52207 26.1582 8.30225C26.2367 8.19234 26.2995 8.11383 26.3466 8.08243C26.3937 8.05103 26.4408 8.01963 26.4879 8.01963C26.535 8.00392 26.5978 7.97252 26.6606 7.92542C26.7078 7.87831 26.7863 7.7841 26.8648 7.62709ZM29.6142 11.5839C29.3316 11.9293 28.9862 12.4631 28.5622 13.1697C28.1383 13.8763 27.9342 14.5357 27.9499 15.1324C28.1226 15.9646 28.5308 16.3728 29.1903 16.3571C29.8498 16.3414 30.5877 16.1059 31.4199 15.6348C32.2521 15.1638 33.0058 14.6613 33.6966 14.1118C34.3875 13.5622 34.8428 13.1697 35.094 12.9342C35.2354 12.7772 35.2982 12.6516 35.2668 12.5259C35.2354 12.4003 35.1726 12.3218 35.0469 12.2747C34.937 12.2276 34.8114 12.259 34.6858 12.3375C34.6701 12.3532 34.6387 12.3846 34.5759 12.4317C34.3561 12.6044 33.9635 12.9185 33.3826 13.3424C32.8016 13.7664 32.1736 14.1746 31.4827 14.5671C30.7918 14.9597 30.1481 15.1952 29.5828 15.2737C29.206 15.3051 29.049 15.1638 29.1118 14.8498C29.1589 14.5357 29.3473 14.1432 29.6456 13.6879C29.944 13.2168 30.258 12.7615 30.6034 12.3218C30.729 12.1177 30.729 11.945 30.6034 11.7723C30.4778 11.6153 30.3208 11.5053 30.1167 11.4582C29.8969 11.4111 29.7398 11.4425 29.6142 11.5839ZM30.5406 10.6261C30.4778 10.9087 30.4935 11.0814 30.5877 11.1285C30.729 11.1599 30.9489 11.0814 31.2472 10.8616C31.5455 10.6575 31.8281 10.4062 32.1108 10.1079C32.3777 9.82529 32.5504 9.57407 32.6289 9.38565C32.676 9.21294 32.6132 9.10303 32.4405 9.04022C32.2835 8.97741 32.0951 8.94601 31.8909 8.96171C31.6868 8.96171 31.5298 9.00882 31.4356 9.07162C31.2472 9.21294 31.0588 9.44846 30.9018 9.74679C30.729 10.0608 30.6191 10.3591 30.5406 10.6261ZM34.8167 11.5053C34.0787 12.7458 33.4664 13.892 32.9796 14.9754C32.9011 15.1952 32.9168 15.3836 33.0267 15.5563C33.1366 15.7133 33.2937 15.8232 33.4664 15.8861C33.6548 15.9489 33.8118 15.9175 33.9531 15.8232C34.1101 15.6662 34.3928 15.3679 34.801 14.944L35.9001 13.8292C36.2769 13.4523 36.591 13.1383 36.8422 12.9185C37.1091 12.6987 37.219 12.6359 37.2033 12.7458C37.1562 12.8714 37.0934 13.0127 37.0149 13.1854C36.8108 13.5936 36.6538 14.0333 36.5282 14.5043C36.4025 14.9754 36.481 15.3051 36.7951 15.5092C37.3132 15.729 38.0198 15.5877 38.8991 15.1324C39.7784 14.6613 40.5634 14.1589 41.2857 13.5936C41.4584 13.4523 41.5369 13.311 41.5369 13.154C41.5212 12.997 41.4584 12.8871 41.3328 12.8086C41.2072 12.7458 41.0502 12.7615 40.8775 12.8871C40.8618 12.8871 40.8461 12.9028 40.8461 12.9028C40.6733 13.0284 40.3907 13.2325 39.9668 13.5151C39.5585 13.7978 39.1346 14.049 38.695 14.2688C38.2553 14.4886 37.9256 14.5671 37.6901 14.5043C37.6273 14.4729 37.643 14.3159 37.7686 14.0647C37.8785 13.8135 38.0198 13.5308 38.1925 13.2011L38.5379 12.5416C38.6321 12.3375 38.695 12.1805 38.7264 12.0549C38.7578 11.8979 38.7107 11.7252 38.6007 11.5682C38.4908 11.3954 38.3652 11.2698 38.1925 11.1756C38.0355 11.0814 37.8785 11.05 37.7372 11.0971C37.5644 11.1756 37.2818 11.3797 36.905 11.6938C36.5282 11.9921 36.1513 12.3218 35.7902 12.6516C35.4133 12.9813 35.1621 13.2168 35.0051 13.3738C35.0051 13.311 35.0522 13.2168 35.1307 13.0755C35.2249 12.9499 35.3348 12.7929 35.4605 12.6044C35.5704 12.4631 35.6803 12.2904 35.7902 12.1334C35.8844 11.9764 35.8687 11.8194 35.7588 11.6467C35.6332 11.4896 35.4762 11.3797 35.2877 11.3326C35.0993 11.2855 34.9423 11.3483 34.8167 11.5053ZM38.4213 24.3491C39.065 23.5641 39.6931 22.7005 40.2898 21.7584C40.8236 20.9419 41.2318 20.361 41.5459 20.0469L42.4252 19.1991C44.3564 17.2521 46.7431 15.1638 49.585 12.9185C49.7734 12.7615 49.8676 12.573 49.8519 12.3532C49.8519 12.1491 49.7891 11.9764 49.6635 11.8508C49.5379 11.7252 49.3966 11.7252 49.2239 11.8508C47.6537 13.1226 46.3034 14.2845 45.1886 15.3365C44.3878 16.0588 43.7912 16.5769 43.3672 16.9223C43.5086 16.7025 43.7755 16.2158 44.1523 15.4464C44.5291 14.6927 44.8432 13.9077 45.1101 13.0912C45.377 12.2747 45.4084 11.6781 45.22 11.3169C45.1258 11.1756 45.0002 11.1128 44.8589 11.1285C44.7019 11.1442 44.5606 11.1913 44.4349 11.2855L44.1523 11.4739C44.1366 11.4739 44.1366 11.4896 44.1209 11.4896C44.0424 11.4425 43.9482 11.3483 43.854 11.2227C43.7755 11.1285 43.697 11.0343 43.6028 10.9401C43.5086 10.8616 43.3986 10.8145 43.273 10.8145C42.9433 10.8459 42.5037 11.0971 41.9698 11.5682C41.4203 12.0549 40.9021 12.5887 40.3997 13.2011C39.8815 13.8135 39.489 14.3316 39.2378 14.7713C38.9551 15.258 38.8452 15.6662 38.8923 15.996C38.9551 16.3257 39.1907 16.4513 39.5989 16.3571C39.8815 16.2629 40.2741 16.0117 40.7608 15.6034C41.2475 15.1952 41.75 14.7398 42.2838 14.2374C43.0375 13.5308 43.6656 12.9813 44.168 12.6202C43.9011 13.6093 43.54 14.5043 43.1003 15.3051C42.645 16.1059 42.1268 16.9066 41.5616 17.7388C41.4674 17.8801 41.3575 18.0372 41.2632 18.1942C40.8707 18.728 40.3212 19.3404 39.6303 20.0155C38.8766 20.7378 38.123 21.57 37.3536 22.5121C37.1338 22.8418 37.071 23.2029 37.1809 23.5641C37.2751 23.9409 37.4478 24.2078 37.699 24.3962C37.9502 24.5847 38.2015 24.569 38.4213 24.3491Z" fill="#3E3E3E"/>
<path d="M15.8634 33.6778H11.9929V46.0898H6.65445V33.6778H2.78404V29.4071H15.8634V33.6778ZM17.3314 32.7436H20.0007L21.4688 34.2384C22.5187 33.2775 23.8355 32.6457 25.4193 32.3432L25.7396 37.3881C25.3125 37.4059 24.7519 37.5127 24.0579 37.7084C23.3817 37.9042 22.9191 38.1533 22.6699 38.4558V46.0898H17.3314V32.7436ZM33.6672 32.3432C37.938 32.3432 40.0734 33.8113 40.0734 36.7475V46.0898H37.4042L35.8827 44.5684C35.3667 45.1734 34.6638 45.645 33.774 45.9831C32.8843 46.3212 32.039 46.4902 31.2382 46.4902C30.4552 46.4902 29.8235 46.4279 29.3431 46.3034C28.8626 46.1788 28.391 45.9653 27.9284 45.6628C26.914 45.0221 26.4069 43.8299 26.4069 42.086C26.4069 38.8829 28.827 37.2813 33.6672 37.2813H34.7349V36.3204C34.1655 36.2848 33.6939 36.267 33.3202 36.267C31.3094 36.267 29.5833 36.5072 28.1419 36.9877L27.5013 33.1707C29.2808 32.619 31.3361 32.3432 33.6672 32.3432ZM31.7988 41.4987V42.5931H32.8931C33.6761 42.5931 34.1744 42.5042 34.3879 42.3262C34.6193 42.1483 34.7349 41.9169 34.7349 41.6322V40.3777H33.6405C32.9999 40.3777 32.5284 40.4488 32.2258 40.5912C31.9411 40.7158 31.7988 41.0183 31.7988 41.4987ZM44.4879 46.0898L41.1513 32.7436H46.4898L47.9579 41.4187H48.2248L49.6929 32.7436H55.0314L51.6949 46.0898H44.4879ZM61.5586 41.5521V42.4864C62.0924 42.5397 62.6263 42.5664 63.1601 42.5664C64.815 42.5664 66.4878 42.2995 68.1783 41.7657L68.8189 45.6895C66.8259 46.2233 64.8506 46.4902 62.8932 46.4902C60.4019 46.4902 58.5957 45.9119 57.4746 44.7552C56.3713 43.5808 55.8197 41.8013 55.8197 39.4167C55.8197 37.0322 56.3713 35.2616 57.4746 34.1049C58.5957 32.9305 60.393 32.3432 62.8665 32.3432C65.3578 32.3432 67.075 32.6813 68.0181 33.3575C68.9613 34.0337 69.4328 35.2972 69.4328 37.1479C69.4328 38.7138 68.8634 39.8438 67.7245 40.5378C66.6034 41.214 64.5481 41.5521 61.5586 41.5521ZM61.5586 37.3614V38.4558H62.653C63.2936 38.4558 63.7562 38.3935 64.041 38.269C64.3435 38.1266 64.4947 37.8152 64.4947 37.3347V36.2403H63.4003C62.7597 36.2403 62.2882 36.3115 61.9856 36.4539C61.7009 36.5784 61.5586 36.8809 61.5586 37.3614ZM76.7847 28.3394V42.2728C77.3542 42.3796 77.7902 42.4419 78.0927 42.4597L77.8524 46.3835C75.5747 46.3835 74.071 46.25 73.3414 45.9831C72.4339 45.645 71.8733 45.2179 71.6598 44.7018C71.5174 44.3815 71.4462 44.0078 71.4462 43.5808V28.7397L76.7847 28.3394Z" fill="#8A53FF"/>
</svg>
