<svg width="20" height="20" viewBox="0 0 20 20" fill="none" xmlns="http://www.w3.org/2000/svg">
<path d="M9.66008 4.94492C8.99463 4.94492 8.34412 5.14225 7.79081 5.51195C7.23751 5.88166 6.80626 6.40714 6.5516 7.02194C6.29694 7.63674 6.23031 8.31324 6.36014 8.96591C6.48996 9.61858 6.81041 10.2181 7.28096 10.6886C7.7515 11.1592 8.35102 11.4796 9.00368 11.6095C9.65635 11.7393 10.3329 11.6727 10.9477 11.418C11.5625 11.1633 12.0879 10.7321 12.4576 10.1788C12.8274 9.62548 13.0247 8.97497 13.0247 8.30951C13.0247 7.41717 12.6702 6.56137 12.0392 5.93038C11.4082 5.2994 10.5524 4.94492 9.66008 4.94492ZM9.66008 10.3283C9.26081 10.3283 8.87051 10.2099 8.53852 9.98805C8.20654 9.76622 7.94779 9.45094 7.795 9.08206C7.6422 8.71318 7.60222 8.30727 7.68012 7.91567C7.75801 7.52407 7.95028 7.16436 8.23261 6.88203C8.51494 6.59971 8.87464 6.40744 9.26624 6.32954C9.65785 6.25165 10.0638 6.29163 10.4326 6.44442C10.8015 6.59722 11.1168 6.85597 11.3386 7.18795C11.5604 7.51993 11.6788 7.91024 11.6788 8.30951C11.6783 8.84476 11.4654 9.35792 11.087 9.7364C10.7085 10.1149 10.1953 10.3277 9.66008 10.3283Z" fill="#8A53FF"/>
<path d="M9.66007 0.907379C7.7968 0.907379 5.97537 1.4599 4.42612 2.49508C2.87686 3.53026 1.66937 5.0016 0.956322 6.72304C0.243279 8.44448 0.056714 10.3387 0.42022 12.1662C0.783727 13.9936 1.68098 15.6723 2.99851 16.9898C4.31604 18.3073 5.99468 19.2046 7.82215 19.5681C9.64962 19.9316 11.5438 19.745 13.2653 19.032C14.9867 18.319 16.4581 17.1115 17.4932 15.5622C18.5284 14.0129 19.0809 12.1915 19.0809 10.3282C19.0781 7.83055 18.0846 5.43597 16.3185 3.66984C14.5523 1.9037 12.1578 0.910229 9.66007 0.907379ZM5.62256 17.3111V16.3845C5.62309 15.8493 5.83595 15.3361 6.21443 14.9576C6.5929 14.5792 7.10607 14.3663 7.64131 14.3658H11.6788C12.2141 14.3663 12.7272 14.5792 13.1057 14.9576C13.4842 15.3361 13.6971 15.8493 13.6976 16.3845V17.3111C12.4723 18.0266 11.0789 18.4036 9.66007 18.4036C8.24121 18.4036 6.84783 18.0266 5.62256 17.3111ZM15.038 16.3347C15.0246 15.4521 14.665 14.61 14.0367 13.99C13.4083 13.37 12.5616 13.0216 11.6788 13.0199H7.64131C6.75857 13.0216 5.9118 13.37 5.28346 13.99C4.65513 14.61 4.29551 15.4521 4.2821 16.3347C3.0618 15.2451 2.20125 13.8105 1.81439 12.2209C1.42754 10.6314 1.53262 8.96178 2.11573 7.43326C2.69884 5.90473 3.73247 4.58937 5.07976 3.66135C6.42705 2.73332 8.02443 2.23641 9.66041 2.23641C11.2964 2.23641 12.8938 2.73332 14.2411 3.66135C15.5883 4.58937 16.622 5.90473 17.2051 7.43326C17.7882 8.96178 17.8933 10.6314 17.5064 12.2209C17.1196 13.8105 16.259 15.2451 15.0387 16.3347H15.038Z" fill="#8A53FF"/>
</svg>
